<svg
  xmlns="http://www.w3.org/2000/svg"
  viewBox="0 0 64 64"
  width="64"
  height="64"
  fill="#000000"
>
  <!-- Shopping Cart Body -->
  <path
    d="M54 18H16.1l-1.4-6.3c-.2-1-.9-1.9-1.9-2.3L6.2 8.4c-.6-.2-1.2-.1-1.7.2L2.1 9.6c-1 .6-1.6 1.7-1.6 2.9s.6 2.3 1.6 2.9l2.7 1.4c.6.3 1.2.4 1.8.2l7.5-1.2c.3 1.3 1.5 2.3 3 2.3h29c1.7 0 3-1.3 3-3s-1.3-3-3-3zm0 4H30.7c-.5 0-.9-.2-1.3-.4l-3.2-1.6c-.3-.2-.6-.2-.9-.1-.4.2-.6.6-.6 1.1s.2.8.6 1.1l3.2 1.6c.5.2 1 .4 1.5.4H54c1.1 0 2 .9 2 2s-.9 2-2 2H27.5c-1.5 0-2.8-.9-3.4-2.2l-3-7.4h-6.1l1.2 5.3c.2.8.9 1.5 1.7 1.7L54 22z"
  />

  <!-- Shopping Cart Wheels -->
  <circle cx="20" cy="46" r="4" />
  <circle cx="44" cy="46" r="4" />

  <!-- Shopping Cart Handle -->
  <path
    d="M16 20h3v10h-3zm28 0h3v10h-3z"
  />
</svg>
